# AST/ASF file generated using VICON BodyLanguage
# -----------------------------------------------
:version 1.10
:name VICON
:units
  mass 1.0
  length 0.45
  angle deg
:documentation
   .ast/.asf automatically generated from VICON data using
   VICON BodyBuilder and BodyLanguage model FoxedUp or BRILLIANT.MOD
:root
   order TX TY TZ RX RY RZ
   axis XYZ
   position 0 0 0  
   orientation 0 0 0 
:bonedata
  begin
     id 1 
     name lhipjoint
     direction 0.645422 -0.672597 0.361999 
     length 2.39934 
     axis 0 0 0  XYZ
  end
  begin
     id 2 
     name lfemur
     direction 0.34202 -0.939693 0  
     length 6.58112  
     axis 0 0 20  XYZ
    dof rx ry rz
    limits (-160.0 20.0)
           (-70.0 70.0)
           (-60.0 70.0)
  end
  begin
     id 3 
     name ltibia
     direction 0.34202 -0.939693 0   
     length 7.02673   
     axis 0 0 20   XYZ
    dof rx
    limits (-10.0 170.0)
  end
  begin
     id 4 
     name lfoot
     direction 0.0835106 -0.229444 0.969733   
     length 2.08772   
     axis -90 7.62852e-016 20   XYZ
    dof rx rz
    limits (-45.0 90.0)
           (-70.0 20.0)
  end
  begin
     id 5 
     name ltoes
     direction 1.5358e-011 -4.21925e-011 1   
     length 1.04844   
     axis -90 7.62852e-016 20   XYZ
    dof rx
    limits (-90.0 20.0)
  end
  begin
     id 6 
     name rhipjoint
     direction -0.644959 -0.672941 0.362185   
     length 2.39812  
     axis 0 0 0  XYZ 
  end
  begin
     id 7 
     name rfemur
     direction -0.34202 -0.939693 0   
     length 6.67015   
     axis 0 0 -20   XYZ
    dof rx ry rz
    limits (-160.0 20.0)
           (-70.0 70.0)
           (-70.0 60.0)
  end
  begin
     id 8 
     name rtibia
     direction -0.34202 -0.939693 0   
     length 7.35735   
     axis 0 0 -20   XYZ
    dof rx
    limits (-10.0 170.0)
 end
 begin
     id 9 
     name rfoot
     direction -0.0670769 -0.184292 0.98058   
     length 2.25469  
     axis -90 -7.62852e-016 -20   XYZ
    dof rx rz
    limits (-45.0 90.0)
           (-20.0 70.0)
  end
  begin
     id 10 
     name rtoes
     direction -1.53575e-011 -4.21908e-011 1   
     length 1.13399   
     axis -90 -7.62852e-016 -20   XYZ
    dof rx
    limits (-90.0 20.0)
  end
  begin
     id 11 
     name lowerback
     direction -0.0188328 0.993434 -0.112847   
     length 2.27656   
     axis 0 0 0   XYZ
    dof rx ry rz
    limits (-20.0 45.0)
           (-30.0 30.0)
           (-30.0 30.0)
  end
  begin
     id 12 
     name upperback
     direction 0.00983139 0.998968 -0.04435   
     length 2.28631   
     axis 0 0 0   XYZ
    dof rx ry rz
    limits (-20.0 45.0)
           (-30.0 30.0)
           (-30.0 30.0)
  end
  begin
     id 13 
     name thorax
     direction 0.0177718 0.999807 0.00833073   
     length 2.30999   
     axis 0 0 0   XYZ
    dof rx ry rz
    limits (-20.0 45.0)
           (-30.0 30.0)
           (-30.0 30.0)
  end
  begin
     id 14 
     name lowerneck
     direction -0.0835025 0.993181 0.0813558   
     length 1.39447   
     axis 0 0 0   XYZ
    dof rx ry rz
    limits (-20.0 45.0)
           (-30.0 30.0)
           (-30.0 30.0)
  end
  begin
     id 15 
     name upperneck
     direction 0.210059 0.976535 0.0474817   
     length 1.39882   
     axis 0 0 0   XYZ
    dof rx ry rz
    limits (-20.0 45.0)
           (-30.0 30.0)
           (-30.0 30.0)
  end
  begin
     id 16
     name head
     direction 0.0780891 0.996944 -0.00207154  
     length 1.41828  
     axis 0 0 0   XYZ
    dof rx ry rz
    limits (-20.0 45.0)
           (-30.0 30.0)
           (-30.0 30.0)
  end
  begin
     id 17 
     name lclavicle
     direction 0.982414 0.166355 -0.0847829  
     length 3.57922  
     axis 0 0 0   XYZ
    dof ry rz
    limits (-20.0 10.0)
           (0.0 20.0)
  end
  begin
     id 18 
     name lhumerus
     direction 1 -4.48975e-011 5.47647e-028   
     length 4.76405   
     axis -180 -30 -90   XYZ
    dof rx ry rz
    limits (-60.0 90.0)
           (-90.0 90.0)
           (-90.0 90.0)
  end
  begin
     id 19
     name lradius
     direction 1 -4.48949e-011 -8.32142e-027   
     length 3.13759   
     axis -180 -30 -90   XYZ
    dof rx
    limits (-10.0 170.0)
  end
  begin
     id 20
     name lwrist
     direction 1 -4.48978e-011 -1.32705e-026   
     length 1.56879   
     axis 9.60836e-015 90 90   XYZ
    dof ry
    limits (-180.0 0.0)
 end
  begin
     id 21 
     name lhand
     direction 1 -4.48975e-011 -2.65409e-026   
     length 0.732262   
     axis 1.69354e-014 90 90   XYZ
    dof rx rz
    limits (-90.0 90.0)
           (-45.0 45.0)
  end
  begin
     id 22 
     name lfingers
     direction 1 -4.48923e-011 -5.30819e-026   
     length 0.590368   
     axis 3.38708e-014 90 90   XYZ
    dof rx
    limits (0.0 90.0)
  end
  begin
     id 23
     name lthumb
     direction 0.707107 -6.34914e-011 0.707107   
     length 0.847654   
     axis -90 45 2.85299e-015   XYZ
    dof rx rz
    limits (-45.0 45.0)
           (-45.0 45.0)
  end
  begin
     id 24 
     name rclavicle
     direction -0.963658 0.245183 -0.106063   
     length 3.43472  
     axis 0 0 0   XYZ 
    dof ry rz
    limits (-10.0 20.0)
           (-20.0 0.0)
  end
  begin
     id 25 
     name rhumerus
     direction -1 -4.48963e-011 -1.64784e-027  
     length 5.10161   
     axis -180 30 90   XYZ
    dof rx ry rz
    limits (-90.0 60.0)
           (-90.0 90.0)
           (-90.0 90.0)
  end
  begin
     id 26 
     name rradius
     direction -1 -4.48969e-011 -2.87943e-027   
     length 3.23267   
     axis -180 30 90   XYZ
    dof rx
    limits (-10.0 170.0)
  end
  begin
     id 27 
     name rwrist
     direction -1 -4.48982e-011 -1.32705e-026   
     length 1.61633   
     axis 9.60836e-015 -90 -90   XYZ
    dof ry
    limits (-180.0 0.0)
  end
  begin
     id 28
     name rhand
     direction -1 -4.48963e-011 -2.65409e-026   
     length 0.702   
     axis 1.69354e-014 -90 -90   XYZ
    dof rx rz
    limits (-90.0 90.0)
           (-45.0 45.0)
  end
  begin
     id 29
     name rfingers
     direction -1 -4.48934e-011 -5.30819e-026   
     length 0.565971   
     axis 3.38708e-014 -90 -90   XYZ
    dof rx
    limits (0.0 90.0)
  end
  begin
     id 30
     name rthumb
     direction -0.707107 -6.34908e-011 0.707107   
     length 0.812624   
     axis -90 -45 -2.85299e-015   XYZ
    dof rx rz
    limits (-45.0 45.0)
           (-45.0 45.0)
  end
:hierarchy
  begin
    root lhipjoint rhipjoint lowerback
    lhipjoint lfemur
    lfemur ltibia
    ltibia lfoot
    lfoot ltoes
    rhipjoint rfemur
    rfemur rtibia
    rtibia rfoot
    rfoot rtoes
    lowerback upperback
    upperback thorax
    thorax lowerneck lclavicle rclavicle
    lowerneck upperneck
    upperneck head
    lclavicle lhumerus
    lhumerus lradius
    lradius lwrist
    lwrist lhand lthumb
    lhand lfingers
    rclavicle rhumerus
    rhumerus rradius
    rradius rwrist
    rwrist rhand rthumb
    rhand rfingers
  end

#!OML:ASF \\sashay\E\basketball\basketball\Project 1\Capture day 1\Session 1\Subject.ASF
:FULLY-SPECIFIED
:DEGREES
83
root 29.3607 15.174 0.373002 -173.156 -59.7669 179.001
lowerback 10.7565 0.762268 -8.53152
upperback 8.47875 -0.262399 0.485673
thorax 2.94091 -0.796073 5.31239
lowerneck -6.93842 2.68944 -12.2952
upperneck -12.3529 4.92843 16.9115
head -3.14086 2.20334 7.3352
rclavicle -2.32578e-014 2.8625e-014
rhumerus -32.7422 -4.53896 -89.6057
rradius 41.62
rwrist -1.34421
rhand -21.3314 28.6681
rfingers 7.12502
rthumb 5.05436 -1.25166
lclavicle -2.32578e-014 2.8625e-014
lhumerus -26.1407 -4.4731 91.7927
lradius 31.9434
lwrist 10.1159
lhand -19.7451 29.5923
lfingers 7.12502
lthumb 6.58593 59.4699
rfemur -20.121 -1.56556 14.8923
rtibia 44.2248
rfoot -25.9015 -14.7754
rtoes -33.912
lfemur -9.71255 18.0364 -19.0073
ltibia 39.2582
lfoot -31.2527 15.8169
ltoes -12.7706
84
root 29.2835 15.1653 0.368217 -173.153 -59.2054 179.383
lowerback 10.5758 0.680376 -8.35439
upperback 8.38723 -0.332572 0.358501
thorax 2.94536 -0.812068 5.08228
lowerneck -7.45563 2.91345 -12.2944
upperneck -11.5972 5.2354 17.2625
head -2.88472 2.38718 7.44497
rclavicle -1.01181e-013 1.47101e-014
rhumerus -33.5012 -3.91957 -89.8729
rradius 42.6048
rwrist -2.51446
rhand -21.2968 28.5978
rfingers 7.12502
rthumb 5.08776 -1.32109
lclavicle -1.01181e-013 1.47101e-014
lhumerus -27.91 -6.16576 92.0561
lradius 34.2426
lwrist 11.7746
lhand -20.7589 30.8646
lfingers 7.12502
lthumb 5.60712 60.7704
rfemur -20.3955 -2.10413 14.8648
rtibia 44.3232
rfoot -26.5826 -13.6921
rtoes -34.0779
lfemur -9.71786 18.3229 -19.0394
ltibia 39.3397
lfoot -31.7874 15.7973
ltoes -12.0456
85
root 29.2039 15.1519 0.365869 -173.145 -58.5408 179.79
lowerback 10.6287 0.606092 -8.30244
upperback 8.03414 -0.413221 0.387321
thorax 2.55015 -0.808977 5.09525
lowerneck -6.99558 3.10546 -11.9071
upperneck -11.712 5.42018 16.6806
head -3.00673 2.46231 7.16981
rclavicle -4.21423e-014 -2.82274e-014
rhumerus -34.5216 -3.51065 -89.747
rradius 43.3065
rwrist -3.25844
rhand -21.0603 28.6457
rfingers 7.12502
rthumb 5.31608 -1.26767
lclavicle -4.21423e-014 -2.82274e-014
lhumerus -30.0031 -7.3601 92.5572
lradius 36.4236
lwrist 13.2203
lhand -21.6666 31.5527
lfingers 7.12502
lthumb 4.73071 61.4799
rfemur -20.7518 -2.58641 14.8264
rtibia 44.4451
rfoot -27.0906 -12.9506
rtoes -35.1962
lfemur -9.79158 18.8152 -19.0722
ltibia 39.4669
lfoot -32.278 15.8486
ltoes -11.9594
86
root 29.1127 15.1329 0.366028 -173.206 -57.7041 180.223
lowerback 10.6086 0.63776 -8.19441
upperback 7.74308 -0.34535 0.469423
thorax 2.23891 -0.738768 5.11912
lowerneck -7.5914 3.32152 -12.3193
upperneck -10.6187 5.73418 17.0992
head -2.6539 2.68785 7.37445
rclavicle -3.20043e-014 7.95139e-016
rhumerus -35.6099 -3.35279 -89.3968
rradius 44.2607
rwrist -4.07086
rhand -20.7466 28.5893
rfingers 7.12502
rthumb 5.61905 -1.31615
lclavicle -3.20043e-014 7.95139e-016
lhumerus -32.1157 -8.49328 93.2346
lradius 38.7898
lwrist 14.6409
lhand -22.6483 31.7359
lfingers 7.12502
lthumb 3.78272 61.6821
rfemur -21.1064 -3.15201 14.7867
rtibia 44.6134
rfoot -27.2843 -12.8195
rtoes -37.315
lfemur -9.81513 19.292 -19.1434
ltibia 39.6251
lfoot -32.9123 16.067
ltoes -11.9436
87
root 29.0186 15.1153 0.368992 -173.225 -56.887 180.62
lowerback 10.5983 0.665377 -7.97445
upperback 7.47154 -0.27578 0.521718
thorax 1.94085 -0.665278 5.04727
lowerneck -7.34345 3.36132 -12.5941
upperneck -10.4451 5.78736 17.1325
head -2.66148 2.72627 7.42475
rclavicle -2.44505e-014 2.10712e-014
rhumerus -36.8023 -2.91921 -89.1755
rradius 45.4945
rwrist -5.33665
rhand -20.5465 28.4996
rfingers 7.12502
rthumb 5.81217 -1.40072
lclavicle -2.44505e-014 2.10712e-014
lhumerus -34.244 -9.58528 93.9687
lradius 41.1113
lwrist 16.136
lhand -23.5584 31.3913
lfingers 7.12502
lthumb 2.90388 61.3513
rfemur -21.5431 -3.95473 14.7706
rtibia 44.8555
rfoot -27.2225 -12.9126
rtoes -39.9482
lfemur -9.83854 19.8309 -19.2404
ltibia 39.8213
lfoot -33.5526 16.1999
ltoes -11.7453
88
root 28.925 15.1021 0.372825 -173.174 -56.1591 180.993
lowerback 10.5244 0.598605 -7.7019
upperback 7.2621 -0.323199 0.563578
thorax 1.76026 -0.657679 4.94304
lowerneck -7.7233 3.54615 -12.8321
upperneck -9.80512 6.0414 17.1067
head -2.45966 2.90213 7.45506
rclavicle -4.47266e-014 1.66979e-014
rhumerus -37.6435 -2.52468 -89.0357
rradius 46.4077
rwrist -6.43418
rhand -20.3521 28.4808
rfingers 7.12502
rthumb 5.99987 -1.41421
lclavicle -4.47266e-014 1.66979e-014
lhumerus -36.1434 -10.0523 94.5647
lradius 43.2371
lwrist 17.3914
lhand -23.9048 30.712
lfingers 7.12502
lthumb 2.56929 60.6763
rfemur -22.063 -4.8743 14.7673
rtibia 45.1961
rfoot -27.3539 -12.4643
rtoes -41.8946
lfemur -9.94329 20.4915 -19.3227
ltibia 40.0814
lfoot -33.9297 16.2961
ltoes -12.1013
89
root 28.8266 15.0834 0.381202 -173.159 -55.2256 181.329
lowerback 10.5227 0.579658 -7.5493
upperback 7.02851 -0.323897 0.691395
thorax 1.51233 -0.630348 4.99412
lowerneck -8.21847 3.82522 -12.9632
upperneck -9.07254 6.40908 16.7724
head -2.22216 3.14492 7.36652
rclavicle -7.7526e-014 3.18055e-014
rhumerus -38.4665 -2.08556 -88.7056
rradius 47.1114
rwrist -7.46996
rhand -20.1877 28.6743
rfingers 7.12502
rthumb 6.15865 -1.21616
lclavicle -7.7526e-014 3.18055e-014
lhumerus -37.9248 -9.84596 95.1282
lradius 45.2325
lwrist 18.6122
lhand -23.7237 29.6119
lfingers 7.12502
lthumb 2.7442 59.574
rfemur -22.5496 -5.69557 14.6833
rtibia 45.6428
rfoot -27.6554 -11.5255
rtoes -42.6489
lfemur -10.0016 21.1545 -19.4809
ltibia 40.4602
lfoot -34.2516 16.5626
ltoes -12.7365
90
root 28.7288 15.0583 0.393996 -173.25 -54.1181 181.747
lowerback 10.5706 0.684201 -7.33694
upperback 6.81494 -0.16228 0.854064
thorax 1.23523 -0.52207 5.03328
lowerneck -8.56013 4.03885 -13.3053
upperneck -8.44811 6.715 16.6087
head -2.04204 3.34966 7.37195
rclavicle -4.51241e-014 -2.22639e-014
rhumerus -39.3656 -1.45539 -88.3554
rradius 47.8928
rwrist -8.59129
rhand -20.4347 28.8512
rfingers 7.12502
rthumb 5.92019 -1.04605
lclavicle -4.51241e-014 -2.22639e-014
lhumerus -39.7214 -9.55973 95.704
lradius 47.2641
lwrist 19.8573
lhand -23.6731 27.6113
lfingers 7.12502
lthumb 2.79303 57.5727
rfemur -23.076 -6.40225 14.6516
rtibia 46.1891
rfoot -27.8184 -10.7871
rtoes -42.9705
lfemur -10.1193 21.877 -19.6224
ltibia 40.9891
lfoot -34.6423 16.9787
ltoes -13.4809
91
root 28.6318 15.0317 0.405802 -173.256 -53.0139 182.071
lowerback 10.5006 0.867199 -6.93937
upperback 6.74242 0.120646 0.822971
thorax 1.1515 -0.360416 4.74888
lowerneck -8.47622 3.90431 -13.7864
upperneck -8.20229 6.567 16.9254
head -1.98396 3.29366 7.55955
rclavicle -8.28932e-014 0
rhumerus -39.991 -1.30309 -88.1942
rradius 48.5343
rwrist -9.39966
rhand -20.9028 28.9189
rfingers 7.12502
rthumb 5.46816 -0.990522
lclavicle -8.28932e-014 0
lhumerus -41.2795 -9.34102 96.0026
lradius 49.0117
lwrist 20.7087
lhand -23.6042 24.9699
lfingers 7.12502
lthumb 2.85961 54.9305
rfemur -23.6849 -7.23256 14.6416
rtibia 46.8303
rfoot -27.637 -11.1153
rtoes -44.5154
lfemur -10.3702 22.8023 -19.7752
ltibia 41.687
lfoot -34.7746 17.6031
ltoes -15.6126
